<svg width="27" height="19" viewBox="0 0 27 19" fill="none" xmlns="http://www.w3.org/2000/svg">
<path d="M4.494 10.7252C4.13099 10.7252 3.83398 11.0222 3.83398 11.3852C3.83398 11.7482 4.13099 12.0452 4.494 12.0452H7.02954C7.39255 12.0452 7.68956 11.7482 7.68956 11.3852C7.68956 11.0222 7.39255 10.7252 7.02954 10.7252H4.494Z" fill="#909090"/>
<path d="M15.6083 12.0452H18.1438C18.5068 12.0452 18.8038 11.7482 18.8038 11.3852C18.8038 11.0222 18.5068 10.7252 18.1438 10.7252H15.6083C15.2452 10.7252 14.9482 11.0222 14.9482 11.3852C14.9482 11.7482 15.2452 12.0452 15.6083 12.0452Z" fill="#909090"/>
<path d="M25.2125 0H6.01711C5.03259 0 4.22958 0.803016 4.22958 1.78753V4.37809H1.32002C0.594011 4.37809 0 4.9721 0 5.69811V17.0778C0 17.8038 0.594011 18.3979 1.32002 18.3979H21.4504C22.1764 18.3979 22.7704 17.8038 22.7704 17.0778V14.0198H25.2125C26.197 14.0198 27 13.2168 27 12.2322V1.78203C26.9945 0.797516 26.197 0 25.2125 0ZM17.7543 5.69811C17.9028 7.67815 19.4759 9.26218 21.4504 9.43268V13.3818C19.4704 13.5303 17.8863 15.1033 17.7158 17.0778H5.01609C4.86759 15.0978 3.29456 13.5138 1.32002 13.3433V9.39418C3.30006 9.24568 4.88409 7.67265 5.05459 5.69811H17.7543ZM19.0744 5.69811H21.4449V8.10716C20.2019 7.94216 19.2174 6.94664 19.0744 5.69811ZM3.72357 5.69811C3.56407 6.94114 2.56855 7.93116 1.31452 8.06866V5.69811H3.72357ZM1.32002 14.6688C2.56305 14.8283 3.55307 15.8238 3.69057 17.0778H1.32002V14.6688ZM19.0414 17.0723C19.2009 15.8293 20.1964 14.8393 21.4504 14.7018V17.0723H19.0414ZM25.6745 12.2322C25.6745 12.4907 25.4655 12.6997 25.207 12.6997H22.7649V5.69811C22.7649 4.9721 22.1709 4.37809 21.4449 4.37809H5.5441V1.78753C5.5441 1.52903 5.75311 1.32003 6.01161 1.32003H25.207C25.4655 1.32003 25.6745 1.52903 25.6745 1.78753V12.2322Z" fill="#909090"/>
<path d="M10.8199 12.0397H11.9474C12.2664 12.0397 12.5249 12.2983 12.5249 12.6173C12.5249 12.9363 12.2664 13.1948 11.9474 13.1948H9.92338C9.56037 13.1948 9.26337 13.4918 9.26337 13.8548C9.26337 14.2178 9.56037 14.5148 9.92338 14.5148H10.7264V15.0483C10.7264 15.4113 11.0234 15.7083 11.3864 15.7083C11.7494 15.7083 12.0464 15.4113 12.0464 15.0483V14.5148C13.0474 14.4653 13.845 13.6348 13.845 12.6228C13.845 11.5777 12.9924 10.7252 11.9474 10.7252H10.8199C10.5009 10.7252 10.2424 10.4667 10.2424 10.1477C10.2424 9.8287 10.5009 9.57019 10.8199 9.57019H12.8054C13.1684 9.57019 13.4654 9.27319 13.4654 8.91018C13.4654 8.54717 13.1684 8.25017 12.8054 8.25017H12.0409V7.73316C12.0409 7.37015 11.7439 7.07314 11.3809 7.07314C11.0179 7.07314 10.7209 7.37015 10.7209 7.73316V8.25567C9.71988 8.30517 8.92236 9.13569 8.92236 10.1477C8.92786 11.1872 9.77488 12.0397 10.8199 12.0397Z" fill="#909090"/>
</svg>
